<?xml version="1.0" encoding="UTF-8"?> <svg xmlns="http://www.w3.org/2000/svg" width="101" height="37" viewBox="0 0 101 37" fill="none"> <g clip-path="url(#clip0_6_256)"> <mask id="mask0_6_256" style="mask-type:luminance" maskUnits="userSpaceOnUse" x="0" y="0" width="101" height="37"> <path d="M101 0H0V37H101V0Z" fill="white"></path> </mask> <g mask="url(#mask0_6_256)"> <mask id="mask1_6_256" style="mask-type:luminance" maskUnits="userSpaceOnUse" x="0" y="0" width="101" height="37"> <path d="M100.922 0H0V36.9515H100.922V0Z" fill="white"></path> </mask> <g mask="url(#mask1_6_256)"> <path fill-rule="evenodd" clip-rule="evenodd" d="M44.488 28.2195H46.7883C47.1948 28.2195 47.6857 28.1552 47.9942 27.8641C48.3027 27.5729 48.3615 27.0962 48.3615 26.7019C48.3593 26.5583 48.3363 26.4156 48.2929 26.2785C48.26 26.1789 48.2111 26.0852 48.1485 26.0007C48.0745 25.9187 47.9817 25.8554 47.8779 25.8163C47.7272 25.7525 47.5722 25.6995 47.4139 25.6574C47.1813 25.5943 46.9414 25.5458 46.7075 25.4973C46.2045 25.4133 45.7099 25.285 45.2299 25.1139C44.259 24.75 43.8477 23.9845 43.8477 22.9813C43.8477 21.181 45.1454 20.6036 46.7724 20.6036H48.7912C48.8783 20.601 48.965 20.6157 49.0464 20.6468C49.1277 20.6778 49.202 20.7245 49.265 20.7843C49.3251 20.8411 49.3729 20.9095 49.4055 20.9852C49.4382 21.0609 49.455 21.1424 49.4547 21.2247C49.4551 21.3063 49.4379 21.3871 49.4047 21.4617C49.3714 21.5363 49.3225 21.6032 49.2613 21.6578C49.1417 21.7728 48.9811 21.8365 48.8144 21.8349H46.7724C46.3758 21.8349 45.8469 21.8798 45.5127 22.1139C45.2225 22.3177 45.1368 22.6428 45.1368 22.9813C45.1227 23.2295 45.1851 23.4761 45.3156 23.6885C45.4426 23.8455 45.6127 23.9631 45.8053 24.027C46.1762 24.1383 46.5558 24.2195 46.9401 24.2696C47.3308 24.3355 47.7163 24.4291 48.0934 24.5498C48.392 24.648 48.6732 24.7916 48.9271 24.9756C49.1774 25.1565 49.3716 25.4031 49.4878 25.6877C49.6092 26.009 49.667 26.3505 49.6579 26.6934C49.6579 27.4419 49.5025 28.2389 48.9234 28.7703C48.3443 29.3016 47.5339 29.4435 46.7761 29.4435H44.4757C44.3926 29.4437 44.3103 29.4275 44.2336 29.3959C44.1569 29.3642 44.0873 29.3177 44.0289 29.2591C43.9689 29.2027 43.9209 29.1348 43.8881 29.0596C43.8553 28.9843 43.8383 28.9032 43.8379 28.8212C43.8375 28.7398 43.8547 28.6593 43.888 28.5848C43.9214 28.5104 43.9702 28.4438 44.0313 28.3893C44.1507 28.2756 44.3101 28.2125 44.4757 28.2134L44.488 28.2195ZM52.6071 20.6036C52.6905 20.6033 52.7732 20.6197 52.8502 20.6515C52.927 20.6834 52.9968 20.7302 53.0552 20.7892C53.1155 20.8449 53.1636 20.9123 53.1964 20.9873C53.2293 21.0623 53.2462 21.143 53.2462 21.2247V26.7334C53.2284 27.1339 53.3591 27.5269 53.6135 27.8386C53.7166 27.9652 53.8472 28.0673 53.9956 28.137C54.1439 28.2068 54.3063 28.2424 54.4704 28.2413H55.9236C56.0789 28.248 56.2335 28.2162 56.3733 28.1489C56.513 28.0816 56.6337 27.9808 56.7243 27.8556C56.9691 27.5389 57.0316 27.1204 57.0316 26.7334V21.249C57.0298 21.1628 57.0465 21.0773 57.0802 20.998C57.114 20.9185 57.1641 20.847 57.2274 20.788C57.3486 20.6685 57.5126 20.6014 57.6835 20.6014C57.8544 20.6014 58.0184 20.6685 58.1395 20.788C58.2028 20.8415 58.254 20.9076 58.2898 20.9819C58.3257 21.0564 58.3454 21.1375 58.3476 21.2198V26.7286C58.3476 27.4565 58.1713 28.1467 57.6902 28.706C57.2287 29.2422 56.6178 29.4811 55.9114 29.4811H54.4607C54.1253 29.4876 53.7923 29.4244 53.4832 29.2954C53.1741 29.1665 52.8957 28.9748 52.6659 28.7327C52.1334 28.1855 51.9424 27.4747 51.9424 26.7286V21.2198C51.943 21.1376 51.9607 21.0564 51.9945 20.9813C52.0282 20.9061 52.0772 20.8387 52.1383 20.7831C52.2635 20.6629 52.4316 20.5965 52.6059 20.5987L52.6071 20.6036ZM62.3276 25.5106V28.7933C62.3303 28.8803 62.315 28.967 62.2827 29.0479C62.2503 29.1289 62.2014 29.2024 62.1392 29.2639C62.0772 29.3254 62.0028 29.3735 61.9211 29.4056C61.8394 29.4375 61.7519 29.4525 61.6641 29.4496C61.5773 29.4517 61.4909 29.4363 61.4102 29.4041C61.3296 29.372 61.2564 29.3239 61.1952 29.2628C61.1363 29.2044 61.0899 29.1349 61.0586 29.0585C61.0272 28.9819 61.0117 28.9001 61.0128 28.8176V21.4333C61.0105 21.3233 61.031 21.214 61.0732 21.1121C61.1153 21.0103 61.1781 20.9181 61.2576 20.8413C61.3382 20.7625 61.4339 20.7005 61.539 20.6588C61.6441 20.6172 61.7565 20.5968 61.8698 20.5987H64.5484C64.8771 20.5952 65.203 20.6579 65.5065 20.783C65.81 20.9081 66.0847 21.0931 66.3138 21.3266C66.5485 21.5498 66.735 21.8175 66.8626 22.114C66.9902 22.4105 67.0559 22.7294 67.0559 23.0516C67.0559 23.3738 66.9902 23.6929 66.8626 23.9893C66.735 24.2857 66.5485 24.5536 66.3138 24.7767C66.0847 25.0103 65.8101 25.1953 65.5066 25.3204C65.2031 25.4455 64.8771 25.5082 64.5484 25.5046L62.3276 25.5106ZM70.6696 25.5106V28.7933C70.6723 28.8803 70.657 28.967 70.6247 29.0479C70.5922 29.1289 70.5434 29.2024 70.4812 29.2639C70.419 29.3254 70.3448 29.3735 70.2631 29.4056C70.1814 29.4375 70.0939 29.4525 70.0061 29.4496C69.9192 29.4517 69.8328 29.4363 69.7522 29.4041C69.6716 29.372 69.5984 29.3239 69.5372 29.2628C69.4786 29.2042 69.4323 29.1347 69.4009 29.0583C69.3697 28.9818 69.3539 28.9001 69.3548 28.8176V21.4333C69.3525 21.3233 69.373 21.214 69.4151 21.1121C69.4573 21.0103 69.5201 20.9181 69.5996 20.8413C69.6802 20.7625 69.7758 20.7005 69.881 20.6588C69.9861 20.6172 70.0985 20.5968 70.2118 20.5987H72.8904C73.2191 20.5951 73.5451 20.6577 73.8486 20.7828C74.1521 20.9079 74.4267 21.0929 74.6558 21.3266C74.8903 21.5498 75.077 21.8175 75.2046 22.114C75.3322 22.4105 75.3979 22.7294 75.3979 23.0516C75.3979 23.3738 75.3322 23.6929 75.2046 23.9893C75.077 24.2857 74.8903 24.5536 74.6558 24.7767C74.4268 25.0105 74.1521 25.1955 73.8486 25.3206C73.5451 25.4457 73.2191 25.5083 72.8904 25.5046L70.6696 25.5106ZM84.2097 23.7589V26.3659C84.2097 27.2078 83.9845 28.0024 83.376 28.6113C82.7676 29.2203 81.9486 29.4496 81.0916 29.4496H80.537C79.68 29.4496 78.8696 29.2191 78.2526 28.6004C77.6356 27.9817 77.4115 27.2114 77.4115 26.3671V23.7589C77.4115 22.9097 77.5866 22.0084 78.222 21.3897C78.8574 20.771 79.6911 20.6036 80.537 20.6036H81.0904C83.1826 20.6036 84.2085 21.7051 84.2085 23.7577L84.2097 23.7589ZM90.8819 25.376L92.5872 28.524C92.6309 28.6157 92.6531 28.7162 92.6521 28.8176C92.6542 28.9021 92.6384 28.9862 92.6057 29.0643C92.573 29.1424 92.5242 29.2129 92.4624 29.2713C92.401 29.3296 92.3288 29.3755 92.2496 29.4061C92.1704 29.4367 92.0858 29.4515 92.0008 29.4496C91.8733 29.4495 91.7484 29.4132 91.6409 29.3453C91.5378 29.287 91.4547 29.1996 91.4022 29.0942L89.4434 25.5106H88.0661V28.8176C88.0683 28.9024 88.0526 28.9866 88.02 29.0649C87.9873 29.1433 87.9383 29.214 87.8763 29.2725C87.7485 29.3909 87.5787 29.4545 87.4038 29.4496C87.3169 29.4518 87.2304 29.4364 87.1499 29.4042C87.0692 29.3722 86.9961 29.324 86.9349 29.2628C86.876 29.2044 86.8296 29.1349 86.7983 29.0585C86.7669 28.9819 86.7514 28.9001 86.7525 28.8176V21.4333C86.7502 21.3233 86.7707 21.214 86.8128 21.1121C86.855 21.0103 86.9178 20.9181 86.9973 20.8413C87.0779 20.7625 87.1736 20.7005 87.2787 20.6588C87.3838 20.6172 87.4962 20.5968 87.6095 20.5987H90.2881C90.6168 20.5952 90.9427 20.6579 91.2462 20.783C91.5497 20.9081 91.8244 21.0931 92.0535 21.3266C92.2889 21.5476 92.4762 21.814 92.6038 22.1094C92.7313 22.4048 92.7965 22.723 92.7954 23.0444C92.7972 23.5946 92.6009 24.1276 92.242 24.5474C91.8975 24.9692 91.4159 25.2595 90.8794 25.3687L90.8819 25.376ZM98.242 21.8349V28.8273C98.2425 28.9099 98.2254 28.9917 98.1918 29.0674C98.1583 29.1431 98.1091 29.2109 98.0474 29.2664C97.9295 29.3834 97.7697 29.4492 97.603 29.4496C97.4291 29.452 97.2615 29.3862 97.1365 29.2664C97.0749 29.2107 97.0257 29.1429 96.9919 29.0672C96.9583 28.9917 96.9408 28.9099 96.9406 28.8273V21.8349H94.8962C94.7276 21.8349 94.5657 21.7691 94.4456 21.6517C94.3841 21.5984 94.3344 21.5328 94.3 21.4593C94.2655 21.3857 94.2472 21.3057 94.2461 21.2247C94.2461 21.1418 94.2638 21.0599 94.2982 20.9845C94.3326 20.9089 94.383 20.8416 94.4456 20.7868C94.5657 20.6694 94.7276 20.6036 94.8962 20.6036H100.247C100.424 20.5991 100.595 20.663 100.725 20.7819C100.787 20.8378 100.837 20.9061 100.872 20.9824C100.906 21.0586 100.923 21.1412 100.923 21.2247C100.922 21.3058 100.904 21.3858 100.869 21.4593C100.835 21.5329 100.785 21.5986 100.724 21.6517C100.603 21.7691 100.441 21.8349 100.272 21.8349H98.242ZM62.3264 21.8349V24.2684H64.5509C64.7092 24.2697 64.8661 24.2387 65.0119 24.1774C65.1576 24.116 65.2891 24.0256 65.398 23.9117C65.5142 23.7989 65.6064 23.6644 65.6694 23.5159C65.7325 23.3674 65.7652 23.2079 65.7653 23.0468C65.7664 22.8879 65.7343 22.7304 65.6712 22.5842C65.6079 22.4382 65.5149 22.3065 65.398 22.1976C65.2909 22.081 65.1599 21.9883 65.0139 21.9255C64.8678 21.8628 64.71 21.8315 64.5509 21.8337L62.3264 21.8349ZM70.6684 21.8349V24.2684H72.8928C73.0513 24.2697 73.2081 24.2387 73.3539 24.1774C73.4996 24.116 73.6311 24.0256 73.74 23.9117C73.8564 23.7993 73.949 23.6647 74.012 23.5161C74.0751 23.3675 74.1075 23.208 74.1073 23.0468C74.1084 22.8879 74.0763 22.7304 74.013 22.5842C73.9499 22.4382 73.8569 22.3065 73.74 22.1976C73.6328 22.081 73.5019 21.9883 73.3559 21.9255C73.2098 21.8628 73.052 21.8315 72.8928 21.8337L70.6684 21.8349ZM80.5382 28.2195H81.0916C81.5923 28.2195 82.0502 28.0861 82.3966 27.7149C82.7431 27.3436 82.8704 26.8657 82.8704 26.3659V23.7589C82.8704 22.5458 82.3685 21.8349 81.0916 21.8349H80.537C79.2601 21.8349 78.7631 22.5446 78.7631 23.7589V26.3659C78.7631 26.8645 78.8855 27.3485 79.2307 27.7209C79.576 28.0933 80.0473 28.2195 80.537 28.2195H80.5382ZM88.0649 21.8349V24.2684H90.2906C90.4489 24.2697 90.6058 24.2387 90.7516 24.1774C90.8973 24.116 91.0288 24.0256 91.1377 23.9117C91.2539 23.7989 91.3461 23.6644 91.4091 23.5159C91.4722 23.3674 91.5049 23.2079 91.505 23.0468C91.5061 22.8879 91.474 22.7304 91.4109 22.5842C91.3476 22.4382 91.2546 22.3065 91.1377 22.1976C91.0306 22.081 90.8996 21.9883 90.7536 21.9255C90.6075 21.8628 90.4497 21.8315 90.2906 21.8337L88.0649 21.8349Z" fill="#2F5BD8"></path> <path fill-rule="evenodd" clip-rule="evenodd" d="M49.0952 12.5012H45.1691V15.6553C45.1715 15.7421 45.1561 15.8286 45.1239 15.9095C45.0917 15.9904 45.0434 16.0641 44.9818 16.1259C44.9213 16.1864 44.8492 16.2342 44.7696 16.2662C44.6902 16.2983 44.6048 16.3141 44.519 16.3128C44.4325 16.3143 44.3464 16.2988 44.2659 16.2672C44.1854 16.2355 44.1121 16.1883 44.0501 16.1284C43.9881 16.071 43.9387 16.0015 43.9052 15.9242C43.8716 15.8469 43.8548 15.7636 43.8555 15.6795V8.09753C43.8552 8.01316 43.8728 7.92966 43.9069 7.85237C43.9411 7.77508 43.991 7.70572 44.0538 7.64867C44.1156 7.58848 44.1889 7.54114 44.2694 7.50948C44.35 7.47781 44.436 7.46244 44.5227 7.46428C44.6085 7.46258 44.6937 7.47817 44.7733 7.51006C44.8529 7.54197 44.925 7.58954 44.9855 7.64989C45.0469 7.71188 45.0953 7.7855 45.1274 7.86637C45.1596 7.94722 45.175 8.03368 45.1728 8.12058V11.2528H49.0989V8.09874C49.0968 8.0139 49.1128 7.92956 49.1457 7.8512C49.1786 7.77284 49.2277 7.70219 49.2899 7.64382C49.4177 7.52546 49.5875 7.46182 49.7625 7.46671C49.85 7.4649 49.937 7.48062 50.0182 7.51294C50.0995 7.54527 50.1733 7.59353 50.2353 7.65482C50.2972 7.71611 50.3461 7.78917 50.3789 7.86962C50.4117 7.95007 50.4277 8.03626 50.426 8.12301V15.6553C50.4275 15.742 50.4113 15.8281 50.3785 15.9086C50.3457 15.989 50.2968 16.0621 50.235 16.1234C50.1731 16.1848 50.0994 16.2332 50.0181 16.2657C49.9369 16.2982 49.85 16.3142 49.7625 16.3128C49.5874 16.3171 49.4176 16.2531 49.2899 16.1344C49.2277 16.0761 49.1786 16.0054 49.1457 15.927C49.1128 15.8486 49.0968 15.7643 49.0989 15.6795V12.5012H49.0952ZM54.5566 8.72349V11.1036H57.4948C57.6724 11.0992 57.8453 11.1616 57.9784 11.2783C58.0431 11.3336 58.0949 11.4021 58.1302 11.4792C58.1655 11.5563 58.1834 11.6401 58.1828 11.7247C58.1841 11.8104 58.1675 11.8953 58.1341 11.9743C58.1005 12.0532 58.0508 12.1244 57.9881 12.1833C57.9255 12.2426 57.8515 12.2891 57.7706 12.3202C57.6898 12.3512 57.6035 12.3661 57.5168 12.3641H54.5554V15.0596H58.173C58.3531 15.0533 58.5285 15.1163 58.6627 15.2355C58.7253 15.292 58.775 15.3611 58.8088 15.438C58.8425 15.5149 58.8594 15.598 58.8586 15.6819C58.8593 15.7658 58.8424 15.8487 58.8092 15.9258C58.7759 16.0028 58.7269 16.0722 58.6652 16.1296C58.6031 16.1901 58.5294 16.2377 58.4485 16.2696C58.3675 16.3015 58.2809 16.317 58.1938 16.3152H54.1097C53.9954 16.3173 53.8818 16.2969 53.7755 16.2553C53.6691 16.2137 53.5723 16.1515 53.4903 16.0726C53.4085 15.9967 53.3437 15.9048 53.3003 15.8026C53.2568 15.7004 53.2356 15.5902 53.2381 15.4794V8.29405C53.2358 8.18299 53.2571 8.0727 53.3005 7.97031C53.344 7.86791 53.4086 7.7757 53.4903 7.69964C53.6571 7.543 53.88 7.45835 54.1097 7.46428H58.1706C58.35 7.45772 58.5252 7.51934 58.6603 7.63654C58.7233 7.69536 58.773 7.76675 58.8062 7.846C58.8392 7.92525 58.855 8.01056 58.8525 8.09631C58.8534 8.1802 58.8365 8.26336 58.8028 8.34031C58.769 8.41726 58.7191 8.48625 58.6566 8.54274C58.5291 8.65933 58.361 8.72238 58.1877 8.71864L54.5566 8.72349ZM65.292 12.2416L66.9986 15.3956C67.0419 15.487 67.0637 15.587 67.0622 15.688C67.0643 15.7726 67.0484 15.8566 67.0157 15.9348C66.9831 16.0129 66.9343 16.0834 66.8725 16.1417C66.8115 16.2002 66.7394 16.2462 66.6604 16.277C66.5813 16.3078 66.497 16.3228 66.4122 16.3213C66.2845 16.321 66.1595 16.2844 66.0522 16.2157C65.9468 16.1591 65.8614 16.072 65.8074 15.9658L63.8486 12.3811H62.4689V15.688C62.4711 15.7728 62.4553 15.857 62.4226 15.9354C62.3899 16.0137 62.3411 16.0845 62.2791 16.1429C62.1512 16.2622 61.9809 16.3262 61.8053 16.3213C61.7185 16.3231 61.6323 16.3073 61.5519 16.275C61.4715 16.2426 61.3986 16.1944 61.3377 16.1332C61.2788 16.0748 61.2324 16.0054 61.201 15.9288C61.1697 15.8524 61.1542 15.7705 61.1553 15.688V8.30498C61.1528 8.19493 61.1734 8.08557 61.2155 7.98372C61.2576 7.88187 61.3204 7.78971 61.4001 7.71297C61.4809 7.63449 61.5766 7.57264 61.6817 7.53099C61.7867 7.48936 61.8991 7.46875 62.0122 7.47035H64.6909C65.0196 7.46631 65.3457 7.52877 65.6493 7.65392C65.9528 7.77907 66.2274 7.96429 66.4562 8.19822C66.6918 8.41915 66.8791 8.68554 67.0066 8.98097C67.1343 9.27641 67.1995 9.59462 67.1981 9.91599C67.2004 10.4661 67.0046 10.9991 66.646 11.419C66.3012 11.8409 65.819 12.1309 65.2822 12.2391L65.292 12.2416ZM76.1547 10.6244V13.229C76.1547 14.0709 75.9294 14.8643 75.3222 15.4733C74.715 16.0823 73.8947 16.3128 73.0365 16.3128H72.4832C71.6262 16.3128 70.8158 16.0823 70.2 15.4636C69.5842 14.8449 69.3589 14.0746 69.3589 13.2315V10.6232C69.3589 9.77405 69.534 8.87271 70.1694 8.25523C70.8047 7.63776 71.6384 7.46913 72.4832 7.46913H73.0365C75.13 7.46913 76.1547 8.56943 76.1547 10.6232V10.6244ZM80.011 8.72471V11.1048H82.9492C83.1266 11.1002 83.299 11.1627 83.4316 11.2795C83.4962 11.3348 83.5481 11.4033 83.5834 11.4804C83.6186 11.5575 83.6366 11.6413 83.636 11.726C83.6381 11.8117 83.6218 11.8969 83.5883 11.9759C83.5547 12.055 83.5047 12.1261 83.4414 12.1845C83.3789 12.244 83.3052 12.2904 83.2246 12.3215C83.1439 12.3526 83.0578 12.3675 82.9713 12.3653H80.0086V15.0608H83.6262C83.8063 15.0543 83.9819 15.1174 84.1159 15.2367C84.1785 15.2933 84.2282 15.3623 84.262 15.4392C84.2958 15.5161 84.3128 15.5992 84.3118 15.6832C84.3125 15.767 84.2956 15.85 84.2623 15.927C84.2292 16.004 84.1801 16.0734 84.1184 16.1308C84.0564 16.1915 83.9827 16.2391 83.9017 16.271C83.8208 16.3029 83.7341 16.3183 83.647 16.3164H79.5691C79.4549 16.3182 79.3413 16.2978 79.235 16.2562C79.1287 16.2146 79.0316 16.1525 78.9496 16.0738C78.868 15.9978 78.8034 15.9059 78.76 15.8036C78.7165 15.7015 78.6952 15.5914 78.6974 15.4806V8.29526C78.6953 8.18424 78.7168 8.07402 78.7601 7.97165C78.8036 7.86929 78.8681 7.77706 78.9496 7.70085C79.1167 7.54455 79.3394 7.45996 79.5691 7.46549H83.6287C83.8106 7.45741 83.9886 7.51913 84.1257 7.63777C84.1885 7.69668 84.238 7.76812 84.2709 7.84736C84.3038 7.92661 84.3194 8.01187 84.3167 8.09753C84.3177 8.18141 84.3008 8.26459 84.267 8.34152C84.2332 8.41847 84.1834 8.48746 84.1208 8.54395C83.9935 8.66076 83.8254 8.72385 83.6519 8.71985L80.011 8.72471ZM86.7272 15.0851H89.0264C89.4328 15.0851 89.925 15.0208 90.2322 14.7309C90.5395 14.4409 90.5995 13.9617 90.5995 13.5687C90.5968 13.4247 90.5738 13.2818 90.531 13.1441C90.4979 13.0445 90.4492 12.9507 90.3865 12.8663C90.3125 12.7842 90.2197 12.721 90.1159 12.6819C89.9652 12.6181 89.8102 12.565 89.6519 12.523C89.4193 12.4599 89.1794 12.4114 88.9456 12.3629C88.442 12.2789 87.9472 12.1506 87.4667 11.9795C86.4971 11.6156 86.0845 10.8513 86.0845 9.84684C86.0845 8.04658 87.3822 7.47035 89.0104 7.47035H91.0292C91.1164 7.46765 91.2032 7.48226 91.2846 7.5133C91.3659 7.54433 91.4402 7.5912 91.503 7.6511C91.5631 7.70761 91.6109 7.77574 91.6433 7.85128C91.6757 7.92682 91.6921 8.00816 91.6915 8.09025C91.6918 8.17173 91.6748 8.25238 91.6417 8.32696C91.6087 8.40156 91.5601 8.46844 91.4993 8.52333C91.3791 8.63821 91.2182 8.70182 91.0513 8.70046H89.0104C88.6138 8.70046 88.0849 8.74533 87.7495 8.98067C87.4593 9.18326 87.3736 9.50838 87.3736 9.84684C87.3589 10.0953 87.4219 10.3422 87.5536 10.5541C87.6799 10.7119 87.8502 10.8295 88.0433 10.8925C88.4147 11.004 88.7946 11.0851 89.1794 11.1352C89.5694 11.2022 89.9543 11.2958 90.3314 11.4154C90.6301 11.5145 90.9118 11.6585 91.1663 11.8424C91.416 12.0235 91.61 12.2696 91.727 12.5533C91.8479 12.8747 91.9052 13.2162 91.896 13.559C91.896 14.3075 91.7405 15.1045 91.1614 15.6358C90.5824 16.1672 89.7731 16.3103 89.0141 16.3103H86.715C86.6317 16.3103 86.5495 16.294 86.4727 16.2622C86.396 16.2303 86.3264 16.1836 86.2681 16.1247C86.2073 16.0688 86.1588 16.0011 86.1256 15.9257C86.0926 15.8503 86.0757 15.7689 86.0759 15.6868C86.0758 15.6053 86.0931 15.5246 86.1266 15.4502C86.1603 15.3759 86.2093 15.3093 86.2706 15.2549C86.3901 15.1414 86.5495 15.0783 86.715 15.079L86.7272 15.0851ZM62.4762 8.70046V11.1388H64.7007C64.859 11.1402 65.0159 11.1092 65.1617 11.0479C65.3075 10.9865 65.4389 10.896 65.5478 10.7822C65.6641 10.6698 65.7566 10.5355 65.8197 10.3871C65.8828 10.2388 65.9152 10.0794 65.9151 9.91841C65.9163 9.75942 65.8843 9.6019 65.8211 9.45577C65.7579 9.30962 65.6649 9.17801 65.5478 9.06923C65.4407 8.95252 65.3099 8.8597 65.1638 8.79696C65.0176 8.73422 64.8598 8.70297 64.7007 8.7053L62.4762 8.70046ZM72.4832 15.0851H73.0365C73.5372 15.0851 73.9963 14.9516 74.3428 14.5816C74.6893 14.2116 74.8166 13.7325 74.8166 13.2327V10.6244C74.8166 9.41133 74.3146 8.70046 73.0365 8.70046H72.4832C71.2075 8.70046 70.7105 9.41012 70.7105 10.6244V13.229C70.7105 13.7264 70.8329 14.2104 71.1781 14.5841C71.5234 14.9577 71.9861 15.0802 72.4832 15.0802V15.0851Z" fill="#2F5BD8"></path> <path fill-rule="evenodd" clip-rule="evenodd" d="M27.2365 3.17714C25.1587 1.13891 22.3524 -0.00313131 19.4286 -0.000177389C16.505 0.00277652 13.7009 1.15048 11.6273 3.19291L3.22294 11.5307C1.9058 12.8361 0.94356 14.4506 0.425887 16.2239C-0.0917857 17.9972 -0.148046 19.8714 0.262336 21.672C0.672717 23.4727 1.53641 25.1411 2.77291 26.5218C4.0094 27.9025 5.57849 28.9506 7.33396 29.5685L7.52735 29.6364L7.59716 29.8281C7.82625 30.4499 8.11055 31.0503 8.44676 31.6223C8.89048 32.3768 9.41683 33.0807 10.0162 33.7209L10.0518 33.7634C12.1262 35.8064 14.9322 36.9532 17.8569 36.9532C20.7816 36.9532 23.5876 35.8064 25.6621 33.7634L34.0677 25.4354C35.3873 24.1298 36.3518 22.5143 36.8709 20.7396C37.3901 18.9649 37.4471 17.0887 37.0365 15.2862C36.626 13.4838 35.7615 11.8137 34.5234 10.4319C33.2854 9.05012 31.7144 8.0016 29.9567 7.38421L29.7645 7.3175L29.6935 7.12824C29.1526 5.67868 28.3271 4.34978 27.2646 3.21839L27.2365 3.1832V3.17714ZM22.0334 19.8199L17.2858 15.1154L20.4689 11.9613C22.0077 10.4685 24.0789 9.63745 26.2323 9.64878C28.3859 9.66011 30.448 10.5128 31.9707 12.0218C33.4936 13.5307 34.3541 15.5741 34.3656 17.7081C34.377 19.8421 33.5384 21.8943 32.0318 23.4192L23.6274 31.7484C22.086 33.2636 20.002 34.1127 17.8309 34.1101C15.6597 34.1077 13.5778 33.2538 12.0399 31.7351C11.7866 31.4581 11.5507 31.166 11.3335 30.8604L10.883 30.2272L11.6629 30.1823C14.3691 30.0362 16.9258 28.9057 18.8431 27.0076L27.2487 18.6795C27.3862 18.5483 27.496 18.3911 27.5715 18.2172C27.6471 18.0434 27.6869 17.8564 27.6887 17.6672C27.6904 17.4779 27.6542 17.2903 27.5818 17.115C27.5096 16.9398 27.4028 16.7806 27.2678 16.6468C27.1328 16.513 26.9722 16.4072 26.7954 16.3357C26.6186 16.264 26.4291 16.2281 26.2381 16.2298C26.0471 16.2316 25.8585 16.271 25.683 16.3459C25.5076 16.4207 25.3489 16.5294 25.2165 16.6658L22.0334 19.8199ZM12.0669 20.2869L15.2499 17.1328L19.9987 21.8385L16.8157 24.9926C15.2799 26.4993 13.2044 27.3421 11.0433 27.3368C8.8821 27.3313 6.81101 26.4783 5.28281 24.964C3.75461 23.4497 2.89368 21.3974 2.88828 19.2559C2.88287 17.1144 3.73345 15.0578 5.25397 13.5359L13.6596 5.2079C15.1993 3.69336 17.2815 2.84425 19.4511 2.84607C21.6206 2.84789 23.7013 3.70048 25.2385 5.21759C25.4929 5.49469 25.7297 5.78722 25.9473 6.09347L26.3966 6.72672L25.6168 6.7716C22.9121 6.91832 20.3572 8.04874 18.4415 9.94631L10.0358 18.2744C9.76633 18.5412 9.6149 18.9032 9.61479 19.2808C9.61468 19.6584 9.7659 20.0205 10.0352 20.2875C10.3046 20.5545 10.6699 20.7046 11.0509 20.7047C11.4319 20.7048 11.7974 20.555 12.0669 20.2881V20.2869Z" fill="#2F5BD8"></path> <path d="M97.811 14.0346V15.0172C97.8222 15.1896 97.7959 15.3624 97.7338 15.5239C97.6719 15.6854 97.5755 15.8317 97.4514 15.9531C97.3273 16.0744 97.1783 16.1679 97.0146 16.2273C96.8508 16.2866 96.6761 16.3104 96.5022 16.297H96.2917C96.1183 16.3088 95.9443 16.2839 95.7815 16.224C95.6186 16.1641 95.4704 16.0704 95.3469 15.9493C95.2233 15.8284 95.1272 15.6826 95.0648 15.5218C95.0025 15.3611 94.9755 15.1891 94.9854 15.0172V14.0346C94.9854 13.5978 95.098 13.2703 95.3245 13.0544C95.551 12.8384 95.873 12.728 96.2917 12.728H96.5022C96.9234 12.728 97.2466 12.836 97.4731 13.0544C97.6995 13.2727 97.811 13.5978 97.811 14.0346ZM96.2917 15.6116H96.5022C96.577 15.6157 96.6518 15.6037 96.7214 15.5763C96.7909 15.5488 96.8536 15.5067 96.905 15.4527C97.0059 15.3308 97.0569 15.1759 97.0482 15.0184V14.0358C97.0637 13.8685 97.0165 13.7014 96.916 13.5663C96.8613 13.5147 96.7961 13.4753 96.7247 13.4506C96.6533 13.4259 96.5775 13.4166 96.5022 13.4231H96.2917C96.2171 13.4165 96.1418 13.4258 96.0712 13.4502C96.0004 13.4747 95.9358 13.5139 95.8815 13.5651C95.782 13.7012 95.7359 13.8685 95.7518 14.0358V15.0184C95.7426 15.1756 95.7933 15.3306 95.8938 15.4527C95.9442 15.5065 96.006 15.5486 96.0748 15.5762C96.1437 15.6036 96.2176 15.6157 96.2917 15.6116ZM99.1258 14.8049V15.9379C99.1269 15.9857 99.1177 16.0333 99.099 16.0774C99.0801 16.1216 99.0522 16.1613 99.0168 16.1939C98.9817 16.2281 98.9399 16.255 98.8942 16.273C98.8482 16.2908 98.7993 16.2994 98.7499 16.2982C98.6491 16.3019 98.5509 16.2656 98.4769 16.1975C98.4423 16.1658 98.4147 16.1271 98.3961 16.084C98.3775 16.0409 98.3683 15.9945 98.3692 15.9476V13.1575C98.3676 13.0998 98.3788 13.0427 98.4015 12.9897C98.4243 12.9367 98.4585 12.8893 98.5014 12.8506C98.5451 12.8099 98.5965 12.7783 98.6526 12.7574C98.7087 12.7366 98.7684 12.7271 98.8283 12.7292H100.36C100.462 12.7248 100.563 12.7604 100.639 12.8287C100.674 12.861 100.702 12.9003 100.72 12.944C100.739 12.9878 100.748 13.0348 100.747 13.0823C100.747 13.1276 100.738 13.1726 100.72 13.2145C100.703 13.2562 100.676 13.2938 100.643 13.3249C100.607 13.3585 100.564 13.3846 100.518 13.4014C100.471 13.4183 100.422 13.4257 100.372 13.4231H99.1258V14.0952H100.105C100.208 14.0927 100.307 14.1292 100.383 14.1971C100.419 14.2271 100.447 14.2642 100.467 14.306C100.487 14.3479 100.497 14.3935 100.497 14.4397C100.498 14.4875 100.489 14.5351 100.47 14.579C100.451 14.6229 100.423 14.6623 100.387 14.6945C100.313 14.7623 100.215 14.7988 100.115 14.7964L99.1258 14.8049Z" fill="#2F5BD8"></path> </g> </g> </g> <defs> <clipPath id="clip0_6_256"> <rect width="101" height="37" fill="white"></rect> </clipPath> </defs> </svg> 